<svg width="30" height="33" viewBox="0 0 30 33" fill="none" xmlns="http://www.w3.org/2000/svg">
<g clip-path="url(#clip0_411_2)">
<path d="M5.93211 2.73285L5.47443 3.53363C0.661229 11.9551 2.24382 22.6107 9.29257 29.2413L10.0963 29.9974L11.1673 29.7478C20.56 27.5589 27.2149 19.1287 27.2229 9.40906L27.2236 8.48484C25.2515 7.2496 22.9956 6.7248 20.789 6.88667C20.3839 6.04881 19.8619 5.11805 19.339 4.3174C22.5772 3.7689 25.9906 4.41941 28.8872 6.31835L29.3148 6.59868C29.699 6.85056 29.9306 7.2814 29.9303 7.74345L29.9289 9.41133C29.9198 20.4002 22.3959 29.9313 11.7767 32.406L10.0044 32.819C9.56588 32.9212 9.1057 32.7969 8.77665 32.4874L7.44657 31.2362C-0.522639 23.7397 -2.31189 11.6926 3.12983 2.17146L3.95578 0.726337C4.18459 0.325996 4.59884 0.0696444 5.05648 0.0451965L5.56583 0.0179863C11.4585 -0.296811 17.0826 3.55113 18.9835 9.16076L19.0877 9.46835C19.4168 10.4393 19.3093 11.5067 18.7934 12.3912C16.7223 15.9423 11.3282 14.4851 11.2957 10.3657C11.2875 9.33962 11.7238 8.36105 12.4903 7.68602L12.7331 7.47218C13.0048 7.23291 13.1178 7.13263 13.4036 6.91876C13.936 7.36877 14.7676 8.71027 14.983 9.13468C14.766 9.29832 14.72 9.34488 14.5133 9.52693L14.2705 9.74077C14.0979 9.89271 13.9997 10.113 14.0016 10.3439C14.0123 11.6951 15.7815 12.173 16.4608 11.0083C16.5769 10.8092 16.6011 10.569 16.527 10.3504L16.4228 10.0428C14.9149 5.59281 10.6367 2.5796 5.93211 2.73285Z" fill="#6AA086"/>
</g>
<defs>
<clipPath id="clip0_411_2">
<rect width="30" height="33" fill="white"/>
</clipPath>
</defs>
</svg>
